<svg width="42" height="42" viewBox="0 0 42 42" fill="none" xmlns="http://www.w3.org/2000/svg">
<path d="M20.9974 0.437256C9.40275 0.437256 0 9.87675 0 21.5213C0 30.8348 6.0165 38.736 14.364 41.5264C15.414 41.7206 15.7973 41.0696 15.7973 40.5105C15.7973 40.0091 15.7789 38.6835 15.7684 36.9248C9.92775 38.1979 8.694 34.0976 8.694 34.0976C7.74113 31.6616 6.363 31.0133 6.363 31.0133C4.45463 29.706 6.50475 29.7323 6.50475 29.7323C8.61263 29.8819 9.72038 31.9058 9.72038 31.9058C11.5946 35.1266 14.637 34.1974 15.834 33.6566C16.023 32.2943 16.5664 31.365 17.1675 30.8374C12.5055 30.3045 7.602 28.4959 7.602 20.4188C7.602 18.1166 8.421 16.2345 9.765 14.7593C9.54712 14.2264 8.82788 12.0818 9.96975 9.18113C9.96975 9.18113 11.7338 8.61413 15.7448 11.3415C17.4195 10.8743 19.215 10.6406 21.0026 10.6328C22.785 10.6433 24.5831 10.8743 26.2605 11.3441C30.2689 8.61676 32.0303 9.18376 32.0303 9.18376C33.1747 12.087 32.4555 14.229 32.2402 14.7619C33.5869 16.2371 34.398 18.1193 34.398 20.4214C34.398 28.5195 29.4892 30.3019 24.8115 30.8243C25.5649 31.4753 26.2369 32.7615 26.2369 34.7276C26.2369 37.5469 26.2106 39.8201 26.2106 40.5105C26.2106 41.0749 26.5886 41.7311 27.6544 41.5238C35.9888 38.7308 42 30.8321 42 21.5213C42 9.87675 32.5973 0.437256 20.9974 0.437256Z" fill="black"/>
</svg>
