<svg width="42" height="42" viewBox="0 0 42 42" fill="none" xmlns="http://www.w3.org/2000/svg">
<path d="M42 21C42 32.5981 32.5981 42 21 42C9.40187 42 0 32.5981 0 21C0 9.40187 9.40187 0 21 0C32.5981 0 42 9.40187 42 21Z" fill="url(#paint0_linear_309_17)"/>
<path d="M27.0405 35.5195H14.9595C10.284 35.5195 6.48047 31.716 6.48047 27.0405V14.9595C6.48047 10.284 10.284 6.48047 14.9595 6.48047H27.0405C31.716 6.48047 35.5195 10.284 35.5195 14.9595V27.0405C35.5195 31.716 31.716 35.5195 27.0405 35.5195ZM14.9595 8.94141C11.6411 8.94141 8.94141 11.6411 8.94141 14.9595V27.0405C8.94141 30.3589 11.6411 33.0586 14.9595 33.0586H27.0405C30.3589 33.0586 33.0586 30.3589 33.0586 27.0405V14.9595C33.0586 11.6411 30.3589 8.94141 27.0405 8.94141H14.9595Z" fill="white"/>
<path d="M21 28.875C16.6578 28.875 13.125 25.3422 13.125 21C13.125 16.6578 16.6578 13.125 21 13.125C25.3422 13.125 28.875 16.6578 28.875 21C28.875 25.3422 25.3422 28.875 21 28.875ZM21 15.5859C18.0145 15.5859 15.5859 18.0145 15.5859 21C15.5859 23.9855 18.0145 26.4141 21 26.4141C23.9855 26.4141 26.4141 23.9855 26.4141 21C26.4141 18.0145 23.9855 15.5859 21 15.5859Z" fill="white"/>
<path d="M30.0095 13.1166C30.0095 13.7385 29.5051 14.2429 28.8832 14.2429C28.2612 14.2429 27.7568 13.7385 27.7568 13.1166C27.7568 12.4946 28.2612 11.9902 28.8832 11.9902C29.5051 11.9902 30.0095 12.4946 30.0095 13.1166Z" fill="white"/>
<defs>
<linearGradient id="paint0_linear_309_17" x1="0" y1="21" x2="42" y2="21" gradientUnits="userSpaceOnUse">
<stop stop-color="#00F38D"/>
<stop offset="1" stop-color="#009EFF"/>
</linearGradient>
</defs>
</svg>
