<svg width="42" height="42" viewBox="0 0 42 42" fill="none" xmlns="http://www.w3.org/2000/svg">
<path d="M21 42C32.598 42 42 32.598 42 21C42 9.40202 32.598 0 21 0C9.40202 0 0 9.40202 0 21C0 32.598 9.40202 42 21 42Z" fill="#039BE5"/>
<path d="M9.60947 20.5449L29.857 12.7381C30.7967 12.3986 31.6175 12.9674 31.313 14.3884L31.3147 14.3866L27.8672 30.6284C27.6117 31.7799 26.9275 32.0599 25.9702 31.5174L20.7202 27.6481L18.188 30.0876C17.908 30.3676 17.6717 30.6039 17.1292 30.6039L17.502 25.2611L27.232 16.4709C27.6555 16.0981 27.1375 15.8881 26.5792 16.2591L14.555 23.8296L9.37147 22.2126C8.24622 21.8556 8.22172 21.0874 9.60947 20.5449Z" fill="white"/>
</svg>
