<svg width="42" height="42" viewBox="0 0 42 42" fill="none" xmlns="http://www.w3.org/2000/svg">
<circle cx="21" cy="21" r="21" fill="white"/>
<path d="M21 0C9.40241 0 0 9.40199 0 21C0 32.598 9.40241 42 21 42C32.5976 42 42 32.598 42 21C42 9.40199 32.5976 0 21 0ZM31.6523 23.2712C32.6311 24.2272 33.6666 25.127 34.5453 26.1818C34.9345 26.6484 35.3015 27.1309 35.5808 27.6736C35.9795 28.4474 35.6194 29.296 34.9268 29.342L30.6246 29.3411C29.5134 29.4331 28.6292 28.9849 27.8837 28.2253C27.2886 27.6199 26.7365 26.9732 26.1633 26.3472C25.9291 26.0903 25.6825 25.8484 25.3886 25.658C24.8021 25.2765 24.2925 25.3934 23.9565 26.0061C23.6141 26.6295 23.5359 27.3204 23.5032 28.0143C23.4564 29.0288 23.1505 29.2939 22.1326 29.3416C19.9576 29.4434 17.8939 29.1134 15.9759 28.0169C14.2839 27.0497 12.9742 25.6847 11.833 24.1392C9.6108 21.1263 7.90889 17.8196 6.3797 14.4179C6.03554 13.6518 6.28733 13.2419 7.13248 13.226C8.53663 13.199 9.94079 13.2024 11.3449 13.2247C11.9164 13.2338 12.2945 13.5607 12.5141 14.1C13.2729 15.9669 14.2031 17.7431 15.3688 19.3905C15.6794 19.8292 15.9965 20.2666 16.4481 20.5763C16.9465 20.9184 17.3263 20.8054 17.5614 20.2489C17.7118 19.8953 17.7766 19.5172 17.8093 19.1383C17.921 17.8402 17.9343 16.5426 17.741 15.2498C17.6207 14.4407 17.1656 13.9182 16.3592 13.7653C15.9484 13.6875 16.0086 13.5354 16.2083 13.3008C16.5551 12.8952 16.8799 12.6443 17.5291 12.6443L22.39 12.6434C23.1561 12.7938 23.3279 13.1375 23.4319 13.9092L23.4362 19.311C23.4272 19.6096 23.5862 20.4947 24.1224 20.6902C24.5521 20.832 24.8356 20.4874 25.0926 20.2154C26.2583 18.9784 27.0888 17.5184 27.8326 16.0073C28.1608 15.3408 28.444 14.6512 28.719 13.9603C28.9235 13.4495 29.2415 13.1981 29.8181 13.2067L34.4989 13.2123C34.6368 13.2123 34.7769 13.2136 34.9135 13.2372C35.7024 13.3721 35.9185 13.7115 35.6744 14.4811C35.2903 15.6902 34.544 16.6973 33.8144 17.707C33.0324 18.7881 32.1984 19.8313 31.4242 20.9171C30.7126 21.9096 30.7689 22.4093 31.6523 23.2712Z" fill="#2787F5"/>
</svg>
