<svg width="48" height="47" viewBox="0 0 48 47" fill="none" xmlns="http://www.w3.org/2000/svg">
<g clip-path="url(#clip0)">
<path d="M47.1302 23.1953C47.1302 36.0058 36.7455 46.3905 23.9349 46.3905C11.1243 46.3905 0.739639 36.0058 0.739639 23.1953C0.739639 10.3847 11.1243 0 23.9349 0C36.7455 0 47.1302 10.3847 47.1302 23.1953Z" fill="url(#paint0_linear)"/>
<path d="M30.6069 39.2327H17.2629C12.0987 39.2327 7.89755 35.0315 7.89755 29.8673V16.5233C7.89755 11.3591 12.0987 7.15796 17.2629 7.15796H30.6069C35.7711 7.15796 39.9723 11.3591 39.9723 16.5233V29.8673C39.9723 35.0315 35.7711 39.2327 30.6069 39.2327ZM17.2629 9.87615C13.5976 9.87615 10.6157 12.858 10.6157 16.5233V29.8673C10.6157 33.5326 13.5976 36.5145 17.2629 36.5145H30.6069C34.2722 36.5145 37.2541 33.5326 37.2541 29.8673V16.5233C37.2541 12.858 34.2722 9.87615 30.6069 9.87615H17.2629Z" fill="white"/>
<path d="M23.9349 31.8935C19.1388 31.8935 15.2367 27.9914 15.2367 23.1953C15.2367 18.3992 19.1388 14.4971 23.9349 14.4971C28.731 14.4971 32.6331 18.3992 32.6331 23.1953C32.6331 27.9914 28.731 31.8935 23.9349 31.8935ZM23.9349 17.2153C20.6373 17.2153 17.9549 19.8977 17.9549 23.1953C17.9549 26.4929 20.6373 29.1753 23.9349 29.1753C27.2325 29.1753 29.9149 26.4929 29.9149 23.1953C29.9149 19.8977 27.2325 17.2153 23.9349 17.2153Z" fill="white"/>
<path d="M33.8864 14.4878C33.8864 15.1748 33.3293 15.7319 32.6423 15.7319C31.9554 15.7319 31.3983 15.1748 31.3983 14.4878C31.3983 13.8009 31.9554 13.2438 32.6423 13.2438C33.3293 13.2438 33.8864 13.8009 33.8864 14.4878Z" fill="white"/>
</g>
<defs>
<linearGradient id="paint0_linear" x1="0.739639" y1="23.1953" x2="47.1302" y2="23.1953" gradientUnits="userSpaceOnUse">
<stop stop-color="#00F38D"/>
<stop offset="1" stop-color="#009EFF"/>
</linearGradient>
<clipPath id="clip0">
<rect width="46.3905" height="46.3905" fill="white" transform="translate(0.739639)"/>
</clipPath>
</defs>
</svg>
