<svg width="52" height="40" viewBox="0 0 52 40" fill="none" xmlns="http://www.w3.org/2000/svg">
<path d="M22.5586 1.91286C22.5586 3.24536 23.6603 3.75632 24.2112 3.84524C24.864 3.81271 26.1696 3.38069 26.1696 1.91286C26.1696 0.0780759 24.7577 0 24.2112 0C23.6647 0 22.5586 0.24724 22.5586 1.91286Z" fill="#00F38D"/>
<path d="M24.8173 1.66703C24.5466 1.9377 24.4361 2.3097 24.531 2.44779C24.6259 2.58588 25.2467 2.56491 25.4679 2.34369C25.6891 2.12248 25.7217 1.79715 25.6306 1.66703C25.5395 1.53691 25.1556 1.3287 24.8173 1.66703Z" fill="#030100"/>
<path d="M23.9532 1.66703C24.2239 1.9377 24.3344 2.3097 24.2395 2.44779C24.1446 2.58588 23.5238 2.56491 23.3026 2.34369C23.0814 2.12248 23.0488 1.79715 23.1399 1.66703C23.231 1.53691 23.6149 1.3287 23.9532 1.66703Z" fill="#030100"/>
<path fill-rule="evenodd" clip-rule="evenodd" d="M4.70897 6.68591C6.46947 6.57175 8.38611 6.61684 9.02129 7.25202C10.6119 8.84261 12.0178 17.2407 9.19008 17.5941C8.88582 17.6321 8.53796 17.6849 8.15969 17.7422C5.15852 18.1971 0.243375 18.9421 0.00794971 14.9399C-0.200771 11.3916 3.75361 11.13 5.61749 11.0067C6.12094 10.9734 6.47187 10.9502 6.54704 10.875C6.90051 10.5216 6.45867 8.71787 3.63095 9.54955C3.25204 9.661 2.93217 9.70498 2.66246 9.69674C0.61188 9.6341 2.66173 6.81866 4.70897 6.68591ZM5.30976 16.0006C6.37016 16.0006 6.90035 15.0286 6.90035 14.2333C6.90035 13.438 6.81199 13.3496 5.4865 13.3496C5.42923 13.3496 5.37359 13.3522 5.31956 13.3572C3.93474 13.4839 3.91915 16.0006 5.30976 16.0006Z" fill="#00F38D"/>
<path fill-rule="evenodd" clip-rule="evenodd" d="M37.0061 17.7246C34.8052 17.8642 31.2991 18.0137 30.7597 17.5942C28.9841 16.2131 27.3226 7.68427 30.1504 7.33081C30.4546 7.29278 30.8025 7.24005 31.1807 7.18271C34.1819 6.72782 39.0971 5.98281 39.3325 9.98504C39.5403 13.5184 35.7278 13.6356 33.901 13.6918C33.3977 13.7073 33.0452 13.7181 32.9689 13.7945C32.6154 14.148 34.8245 15.2967 38.007 15.2967C39.205 15.2967 39.6027 15.633 39.6369 16.0482C39.7327 17.2085 38.1681 17.6509 37.0061 17.7246ZM34.2845 8.45955C32.7903 8.45955 32.0432 9.58749 32.0432 10.5103C32.0432 11.4332 32.1677 11.5357 34.0354 11.5357C34.118 11.5357 34.1982 11.5326 34.276 11.5266C36.059 11.389 36.0728 8.45955 34.2845 8.45955Z" fill="#00F38D"/>
<path fill-rule="evenodd" clip-rule="evenodd" d="M23.4998 38.084C21.2989 38.2236 17.7927 38.3731 17.2534 37.9536C15.4778 36.5725 13.8163 28.0436 16.644 27.6902C16.9483 27.6522 17.2961 27.5994 17.6744 27.5421C20.6756 27.0872 25.5907 26.3422 25.8261 30.3444C26.034 33.8778 22.2215 33.995 20.3946 34.0512C19.8914 34.0667 19.5388 34.0775 19.4625 34.1539C19.109 34.5073 21.3182 35.6561 24.5006 35.6561C25.6987 35.6561 26.0963 35.9923 26.1306 36.4076C26.2263 37.5679 24.6617 38.0102 23.4998 38.084ZM20.7792 28.8189C19.2851 28.8189 18.538 29.9468 18.538 30.8696C18.538 31.7925 18.6625 31.895 20.5302 31.895C20.6128 31.895 20.693 31.8919 20.7708 31.8859C22.5538 31.7483 22.5675 28.8189 20.7792 28.8189Z" fill="#00F38D"/>
<path d="M17.6817 17.8476C17.354 17.9876 16.4583 17.9654 15.6553 17.8476C14.317 17.6964 14.6481 15.7276 14.6481 14.8265C14.6481 13.7663 15.3876 4.68252 15.4769 2.73868C15.5661 0.79485 17.8224 0.0711025 18.4212 1.57313C18.9782 2.9703 18.5997 8.9067 18.4212 11.469C18.2428 14.0314 18.5482 17.4772 17.6817 17.8476Z" fill="#00F38D"/>
<path d="M25.071 18.1221C24.7684 18.2358 23.9413 18.2178 23.1998 18.1221C21.9639 17.9993 22.8949 15.5351 22.8949 14.8034C22.8949 13.9425 23.1174 8.15681 23.1998 6.57837C23.2822 4.99993 24.812 4.63359 25.365 5.85327C25.8793 6.98781 25.5298 10.5771 25.365 12.6577C25.2002 14.7384 25.8711 17.8214 25.071 18.1221Z" fill="#00F38D"/>
<path d="M43.0664 8.23834V17.5061C43.0664 17.6853 45.6218 17.8048 45.919 17.5061C46.2161 17.2074 45.6218 11.4725 45.919 11.4725C46.2161 11.4725 49.3658 17.3269 49.5441 17.5061C49.7224 17.6853 51.5647 17.5061 51.743 17.3269C51.9212 17.1477 51.4458 5.97647 51.2675 5.79726C51.0892 5.61804 49.3064 5.5583 49.0687 5.79726C48.831 6.03621 49.3064 12.4283 49.0687 12.4283C48.9109 12.4283 47.3783 9.85079 46.2499 7.90384C45.8332 7.18478 45.2644 6.45439 44.4333 6.45439C43.5542 6.45439 43.0664 7.35928 43.0664 8.23834Z" fill="#00F38D"/>
<path fill-rule="evenodd" clip-rule="evenodd" d="M0 22.8135V37.2972C0.0427249 37.9808 0.512698 39.348 2.05079 39.348C2.23067 39.348 2.48009 39.3615 2.78449 39.3779C5.73371 39.5371 13.8429 39.9748 13.8429 31.1448C13.8429 21.4036 0 18.5837 0 21.1472V22.8135ZM2.30699 25.603V34.1183C2.33231 34.5202 2.61081 35.324 3.52228 35.324C3.62887 35.324 3.77668 35.3319 3.95706 35.3415C5.70475 35.4351 10.5102 35.6924 10.5102 30.5011C10.5102 24.774 2.30699 23.1162 2.30699 24.6233V25.603Z" fill="#00F38D"/>
<path d="M33.1548 38.4528C30.1716 38.4528 27.1965 28.2231 25.8673 22.1955C25.7076 21.4712 25.5011 20.6934 25.7794 20.0058C26.0101 19.4358 26.5564 19.3912 27.686 19.8303C29.4529 20.5171 30.9673 33.0957 32.7447 33.0957C34.522 33.0957 34.4401 21.2079 35.3423 20.0854C35.388 20.0287 35.4359 19.9765 35.4856 19.9287C36.7967 18.6701 37.8482 21.0291 37.6637 22.8371C37.0224 29.1214 35.8861 38.4528 33.1548 38.4528Z" fill="#00F38D"/>
</svg>
