<svg width="320" height="396" viewBox="0 0 320 396" fill="none" xmlns="http://www.w3.org/2000/svg">
<g clip-path="url(#clip0_356_96)">
<path fill-rule="evenodd" clip-rule="evenodd" d="M-1 -50C-0.977901 -49.485 -0.966602 -48.9845 -0.966602 -48.5V-5.15488C-0.966602 2.85134 3.55368 11.1679 8.8801 20.9675C16.5186 35.0211 8.8801 48.8868 8.8801 72.5C8.8801 93.2807 16 96.5 20 111.5C24 126.5 17.5 126.858 17.5 143.5C17.5 161.587 25.9348 168.821 35.521 182.129C44.2533 194.252 52.5967 205.835 52.5967 219.507C52.5967 224.996 52.3593 231.187 52.1087 237.722C51.05 265.328 49.7554 299.084 65.1237 312.166C70.6528 316.872 75.2314 325.935 80.5292 336.421C93.4427 361.982 110.629 396 156.268 396C204.591 396 227.834 355.376 242.267 330.148C247.058 321.775 250.879 315.098 254.323 312.166C268.146 300.399 271.17 262.527 271.17 219.507C271.17 198.088 277.166 188.335 283.188 178.542C289.261 168.665 295.36 158.746 295.36 136.775C295.36 112.997 296 105.5 296 99C296 89.7772 307.647 76.6018 307.647 62.5C307.647 45.4967 304.229 42.4789 312.5 27.5C319.253 15.2698 320.533 3.7554 320.533 -5.5C320.533 -8.72583 320.403 -12.7012 320.257 -17.1744C319.946 -26.6751 319.561 -38.4213 320.194 -50H-1Z" fill="url(#paint0_linear_356_96)"/>
</g>
<defs>
<linearGradient id="paint0_linear_356_96" x1="-1" y1="173" x2="320.533" y2="173" gradientUnits="userSpaceOnUse">
<stop stop-color="#4776E6"/>
<stop offset="1" stop-color="#8E54E9"/>
</linearGradient>
<clipPath id="clip0_356_96">
<rect width="320" height="396" fill="white"/>
</clipPath>
</defs>
</svg>
