<svg width="267" height="211" viewBox="0 0 267 211" fill="none" xmlns="http://www.w3.org/2000/svg">
<g filter="url(#filter0_d_304_291)">
<path d="M144.713 101.212C120.472 107.203 91.166 93.7633 79.543 86.2947C80.9831 69.2988 93.6979 32.8764 133.036 23.154C172.374 13.4316 194.416 48.2208 200.519 66.8307C200.519 66.8307 175.014 93.7228 144.713 101.212Z" fill="#70BCB8"/>
<path d="M134.346 88.1252C133.272 88.8371 130.704 90.0074 129.025 88.9938C127.346 87.9803 124.171 85.7294 122.793 84.7306C122.184 84.5538 120.818 84.1115 120.231 83.7567C119.496 83.3133 117.105 81.2257 117.274 80.8267C117.444 80.4277 120.255 82.4114 120.509 81.9916C120.762 81.5718 119.172 78.7506 119.362 78.4358C119.552 78.1209 121.647 80.8174 121.751 81.2381C121.855 81.6589 122.407 79.5581 122.744 79.4749C123.013 79.4084 123.034 80.8912 123.011 81.6409C123.157 82.2299 123.511 83.446 123.763 83.598C124.078 83.7881 128.444 86.2804 129.033 86.1348L132.651 85.2406C133.324 85.0742 134.365 83.5074 134.802 82.7447C139.071 82.0765 146.262 78.4659 146.566 77.9622C146.946 77.3326 155.944 85.198 157.071 87.955C158.199 90.7119 161.102 97.7622 161.078 99.1075C161.058 100.184 160.732 100.116 160.571 99.947L159.819 97.99C159.586 98.8512 159.068 100.586 158.866 100.636C158.664 100.686 157.961 98.5385 157.635 97.4585C157.423 98.0466 156.936 99.1847 156.684 99.0326C156.37 98.8426 156.842 94.9758 157.223 94.3461C157.603 93.7165 154.689 90.5974 152.93 88.1751C151.522 86.2373 150.484 85.6248 150.141 85.5608C151.394 88.5844 153.773 94.9844 153.265 96.3957C152.629 98.1599 138.911 102.622 137.673 101.588C136.683 100.762 135.043 92.2684 134.346 88.1252Z" fill="#00F38D"/>
<path d="M112.361 64.1131C116.62 81.346 132.502 84.4326 139.91 83.8219C148.249 81.3146 163.753 71.5542 159.061 52.5711C153.197 28.8423 134.688 32.3453 127.619 34.0922C120.551 35.8391 107.037 42.572 112.361 64.1131Z" fill="#00F38D"/>
<path d="M140.786 52.7152C138.151 57.0808 137.911 62.2451 139.579 63.7276C141.248 65.2102 149.21 62.9547 151.363 59.3867C153.517 55.8187 152.898 51.5073 151.304 50.1157C149.71 48.724 144.08 47.2583 140.786 52.7152Z" fill="#030100"/>
<path d="M129.607 55.478C133.973 58.1133 136.591 62.5711 135.805 64.6603C135.019 66.7496 126.923 68.4625 123.355 66.3087C119.787 64.1548 118.327 60.0515 119.089 58.0775C119.851 56.1036 124.15 52.1838 129.607 55.478Z" fill="#030100"/>
<path d="M136.386 72.1748C136.938 72.7228 138.277 73.7605 139.22 73.5276C140.162 73.2947 140.808 71.7663 141.013 71.0312" stroke="#030100" stroke-width="2" stroke-linecap="round"/>
<path d="M47.6713 112.142L70.6215 89.0504C75.9282 83.711 84.6023 83.5298 91.3343 86.8988C103.34 92.907 122.213 97.7833 144.988 92.1544C167.524 86.5847 182.564 76.7869 191.088 68.8921C195.984 64.3573 203.078 61.8611 209.356 64.1225L232.598 72.4935C239.889 75.1197 243.497 83.1788 238.85 89.3807C227.235 104.881 201.872 126.018 156.15 137.318C109.995 148.725 72.3562 140.818 50.6398 131.757C42.6002 128.402 41.5303 118.32 47.6713 112.142Z" fill="#4D34C1"/>
<circle cx="86.086" cy="115.646" r="9.19927" transform="rotate(-13.8824 86.086 115.646)" fill="#C77DFF"/>
<circle cx="123.184" cy="116.765" r="9.19927" transform="rotate(-13.8824 123.184 116.765)" fill="#C77DFF"/>
<circle cx="168.477" cy="105.03" r="9.19927" transform="rotate(-13.8824 168.477 105.03)" fill="#C77DFF"/>
<circle cx="201.16" cy="88.2888" r="9.19927" transform="rotate(-13.8824 201.16 88.2888)" fill="#C77DFF"/>
</g>
<defs>
<filter id="filter0_d_304_291" x="0.72998" y="3.47168" width="283.198" height="207.505" filterUnits="userSpaceOnUse" color-interpolation-filters="sRGB">
<feFlood flood-opacity="0" result="BackgroundImageFix"/>
<feColorMatrix in="SourceAlpha" type="matrix" values="0 0 0 0 0 0 0 0 0 0 0 0 0 0 0 0 0 0 127 0" result="hardAlpha"/>
<feOffset dy="25"/>
<feGaussianBlur stdDeviation="21.5"/>
<feComposite in2="hardAlpha" operator="out"/>
<feColorMatrix type="matrix" values="0 0 0 0 0.878431 0 0 0 0 0.666667 0 0 0 0 1 0 0 0 1 0"/>
<feBlend mode="normal" in2="BackgroundImageFix" result="effect1_dropShadow_304_291"/>
<feBlend mode="normal" in="SourceGraphic" in2="effect1_dropShadow_304_291" result="shape"/>
</filter>
</defs>
</svg>
