<svg width="32" height="25" viewBox="0 0 32 25" fill="none" xmlns="http://www.w3.org/2000/svg">
<path d="M17.8561 15.1113C14.8637 16.4212 10.7874 15.3384 9.12331 14.6332C8.93211 12.4101 9.76373 7.43247 14.6198 5.30674C19.4758 3.18101 23.0889 7.17742 24.2885 9.44135C24.2885 9.44135 21.5965 13.4739 17.8561 15.1113Z" fill="#77FFC6"/>
<path d="M19.8421 18.2709C15.4309 20.2018 11.4213 20.5271 8.443 20.2569C6.08418 20.0428 5.29143 17.4402 6.65217 15.5016C7.82804 13.8264 10.1946 13.3806 12.2328 13.5675C13.708 13.7028 15.4925 13.5315 17.4016 12.6958C19.407 11.8179 20.8615 10.7432 21.8633 9.75949C23.0891 8.55585 24.8179 7.60829 26.5095 7.90805C28.4739 8.25616 29.6764 10.152 28.5065 11.768C27.011 13.834 24.3221 16.3098 19.8421 18.2709Z" fill="#4D34C1"/>
<circle cx="10.3287" cy="17.0305" r="1.20342" transform="rotate(-23.6414 10.3287 17.0305)" fill="#C77DFF"/>
<circle cx="15.1363" cy="16.3523" r="1.20342" transform="rotate(-23.6414 15.1363 16.3523)" fill="#C77DFF"/>
<circle cx="20.7154" cy="13.8352" r="1.20342" transform="rotate(-23.6414 20.7154 13.8352)" fill="#C77DFF"/>
<circle cx="24.5582" cy="10.9519" r="1.20342" transform="rotate(-23.6414 24.5582 10.9519)" fill="#C77DFF"/>
</svg>
