<svg width="47" height="47" viewBox="0 0 47 47" fill="none" xmlns="http://www.w3.org/2000/svg">
<g clip-path="url(#clip0)">
<path d="M23.8018 0.48291C10.9951 0.48291 0.609467 10.9092 0.609467 23.771C0.609467 34.0581 7.25491 42.7853 16.475 45.8673C17.6348 46.0819 18.0581 45.3629 18.0581 44.7453C18.0581 44.1915 18.0378 42.7273 18.0262 40.7847C11.575 42.1909 10.2123 37.662 10.2123 37.662C9.15982 34.9714 7.63763 34.2552 7.63763 34.2552C5.52976 32.8113 7.7942 32.8403 7.7942 32.8403C10.1224 33.0056 11.346 35.241 11.346 35.241C13.4162 38.7986 16.7766 37.7722 18.0987 37.1749C18.3075 35.6701 18.9076 34.6437 19.5716 34.061C14.4222 33.4724 9.00615 31.4747 9.00615 22.5532C9.00615 20.0104 9.91077 17.9316 11.3953 16.3021C11.1546 15.7135 10.3602 13.3447 11.6214 10.1408C11.6214 10.1408 13.5698 9.51457 18.0001 12.5271C19.8499 12.011 21.8331 11.7529 23.8076 11.7442C25.7763 11.7558 27.7624 12.011 29.6151 12.53C34.0425 9.51747 35.988 10.1437 35.988 10.1437C37.2522 13.3505 36.4577 15.7164 36.22 16.305C37.7074 17.9345 38.6033 20.0133 38.6033 22.5561C38.6033 31.5008 33.1814 33.4695 28.0147 34.0465C28.8468 34.7655 29.5891 36.1862 29.5891 38.3579C29.5891 41.4718 29.5601 43.9827 29.5601 44.7453C29.5601 45.3686 29.9776 46.0935 31.1547 45.8644C40.3604 42.7795 47 34.0552 47 23.771C47 10.9092 36.6143 0.48291 23.8018 0.48291Z" fill="black"/>
</g>
<defs>
<clipPath id="clip0">
<rect width="46.3905" height="46.3905" fill="white" transform="translate(0.609467)"/>
</clipPath>
</defs>
</svg>
