<svg width="297" height="270" viewBox="0 0 297 270" fill="none" xmlns="http://www.w3.org/2000/svg">
<path d="M171.458 56.3092C139.558 46.621 106.572 57.2473 94.0658 63.7714C88.2788 68.7776 75.3922 80.4121 70.1422 86.9008C63.5797 95.0115 54.3246 139.544 56.0998 149.306C57.875 159.069 70.0006 183.256 102.968 201.799C135.936 220.342 171.963 215.723 196.167 195.632C220.372 175.541 228.105 126.46 224.802 115.737C221.5 105.014 211.333 68.4194 171.458 56.3092Z" fill="#C77DFF"/>
<path d="M231.492 154.5C243.992 157.5 275.597 168.907 258.709 190.83C241.821 212.754 41.6623 154.997 21.2261 131.246C0.789868 107.494 39.1024 92.5616 53.4411 97.2569" stroke="#4D34C1" stroke-width="23" stroke-linecap="square"/>
<circle cx="122.548" cy="106.82" r="19.6896" transform="rotate(17.1676 122.548 106.82)" fill="#B5EEFF"/>
<circle cx="122.678" cy="107.066" r="10.8293" transform="rotate(17.1676 122.678 107.066)" fill="#213D6B"/>
<circle cx="122.549" cy="106.82" r="5.90687" transform="rotate(17.1676 122.549 106.82)" fill="#030100"/>
<circle cx="181.252" cy="121.444" r="22.5744" transform="rotate(17.1676 181.252 121.444)" fill="#B5EEFF"/>
<circle cx="181.401" cy="121.726" r="12.4159" transform="rotate(17.1676 181.401 121.726)" fill="#213D6B"/>
<circle cx="181.252" cy="121.444" r="6.77231" transform="rotate(17.1676 181.252 121.444)" fill="#030100"/>
</svg>
