<svg width="47" height="47" viewBox="0 0 47 47" fill="none" xmlns="http://www.w3.org/2000/svg">
<g clip-path="url(#clip0)">
<path d="M23.1953 46.3905C36.0057 46.3905 46.3905 36.0057 46.3905 23.1953C46.3905 10.3849 36.0057 0 23.1953 0C10.3849 0 0 10.3849 0 23.1953C0 36.0057 10.3849 46.3905 23.1953 46.3905Z" fill="#039BE5"/>
<path d="M10.6138 22.6927L32.9779 14.0699C34.0159 13.6949 34.9224 14.3231 34.5861 15.8927L34.588 15.8907L30.7801 33.8303C30.4979 35.1022 29.7422 35.4115 28.6848 34.8123L22.886 30.5385L20.0891 33.2331C19.7798 33.5423 19.5188 33.8033 18.9196 33.8033L19.3314 27.902L30.0785 18.1928C30.5463 17.7811 29.9741 17.5492 29.3575 17.959L16.0763 26.3209L10.3509 24.5348C9.10804 24.1405 9.08098 23.2919 10.6138 22.6927Z" fill="white"/>
</g>
<defs>
<clipPath id="clip0">
<rect width="46.3905" height="46.3905" fill="white"/>
</clipPath>
</defs>
</svg>
