<svg width="48" height="47" viewBox="0 0 48 47" fill="none" xmlns="http://www.w3.org/2000/svg">
<g clip-path="url(#clip0)">
<circle cx="24.0651" cy="23.1953" r="23.1953" fill="white"/>
<path d="M24.0651 0C11.2551 0 0.869812 10.3848 0.869812 23.1953C0.869812 36.0057 11.2551 46.3905 24.0651 46.3905C36.875 46.3905 47.2603 36.0057 47.2603 23.1953C47.2603 10.3848 36.875 0 24.0651 0ZM35.831 25.7039C36.9121 26.7599 38.0558 27.7536 39.0263 28.9187C39.4563 29.4341 39.8616 29.9671 40.1701 30.5665C40.6105 31.4212 40.2128 32.3585 39.4478 32.4093L34.6958 32.4084C33.4685 32.5099 32.4918 32.0149 31.6684 31.1759C31.0111 30.5072 30.4012 29.7929 29.7681 29.1015C29.5095 28.8177 29.2371 28.5505 28.9125 28.3402C28.2647 27.9188 27.7018 28.0479 27.3307 28.7246C26.9524 29.4133 26.8661 30.1764 26.83 30.9428C26.7783 32.0633 26.4404 32.3562 25.3161 32.4088C22.9137 32.5213 20.6343 32.1568 18.5158 30.9457C16.6469 29.8774 15.2003 28.3697 13.9398 26.6626C11.4853 23.3348 9.60547 19.6824 7.91643 15.9251C7.53629 15.0789 7.81439 14.6262 8.7479 14.6086C10.2988 14.5787 11.8498 14.5825 13.4007 14.6072C14.0319 14.6172 14.4495 14.9783 14.6921 15.5739C15.5302 17.636 16.5576 19.5979 17.8452 21.4175C18.1883 21.902 18.5386 22.3852 19.0373 22.7273C19.5879 23.1051 20.0074 22.9803 20.267 22.3657C20.4331 21.9751 20.5048 21.5575 20.5408 21.1389C20.6642 19.7052 20.6789 18.2719 20.4654 16.8439C20.3325 15.9503 19.8299 15.3732 18.9391 15.2042C18.4854 15.1183 18.5518 14.9503 18.7725 14.6912C19.1555 14.2432 19.5143 13.966 20.2314 13.966L25.6004 13.9651C26.4465 14.1312 26.6364 14.5109 26.7512 15.3632L26.756 21.3297C26.746 21.6595 26.9216 22.6372 27.5139 22.8531C27.9885 23.0097 28.3017 22.6291 28.5855 22.3287C29.873 20.9624 30.7904 19.3497 31.6119 17.6806C31.9745 16.9445 32.2872 16.1828 32.591 15.4197C32.8169 14.8554 33.1681 14.5778 33.805 14.5873L38.9751 14.5934C39.1274 14.5934 39.2821 14.5949 39.433 14.621C40.3044 14.77 40.5431 15.1449 40.2735 15.9949C39.8493 17.3304 39.0249 18.4428 38.2191 19.5581C37.3553 20.7521 36.4342 21.9044 35.5789 23.1037C34.793 24.2 34.8552 24.7519 35.831 25.7039Z" fill="#2787F5"/>
</g>
<defs>
<clipPath id="clip0">
<rect width="46.3905" height="46.3905" fill="white" transform="translate(0.869812)"/>
</clipPath>
</defs>
</svg>
